<?xml version="1.0" encoding="UTF-8"?>
<svg id="Layer_1" xmlns="http://www.w3.org/2000/svg" version="1.1" viewBox="0 0 500 500">
  <!-- Generator: Adobe Illustrator 29.0.0, SVG Export Plug-In . SVG Version: 2.1.0 Build 186)  -->
  <defs>
    <style>
      .st0 {
        fill: #ef5521;
      }

      .st1 {
        fill: #552606;
      }

      .st2 {
        fill: #6e7906;
      }

      .st3 {
        fill: #feecc0;
      }

      .st4 {
        fill: #8c9c0c;
      }
    </style>
  </defs>
  <g>
    <path class="st1" d="M204.51,48.35c5.08-3.35,10.12-7.71,16.46-8.13,4.5-.4,7.9,3.1,10.86,5.96,14.57,15.67,22.4,37.05,23.12,58.29,4.85-10.57,10.96-20.97,20.31-28.19,15.33-12.7,36.36-17.39,55.82-13.95,4.93.95,10.81,1.63,14.09,5.88,1.7,7.47-1.68,14.87-4.47,21.66-3.78,7.71-8.15,15.44-14.72,21.13-.76.85-2.05,1.58-1.92,2.9,47.94,15.08,87.62,54.88,101.69,103.25,4.43,14.84,7.08,30.33,6.81,45.86.78,33.68-7.71,67.93-26.06,96.35-20.23,31.15-52.11,53.93-87.29,65.24-34.81,11.62-72.46,12.99-108.56,7.49-11.07-2.09-22.01-4.87-32.7-8.41-27.64-9.13-52.98-25.53-72.11-47.53-19.01-21.61-31.04-48.86-35.87-77.12-3.09-15.14-2.94-30.7-2.32-46.08,1.28-13.84,3.69-27.66,8.11-40.86,4.9-15.8,13.18-30.28,22.24-44.03,16.12-22,38.55-38.98,63.42-49.96-12.23-8.49-22.32-20.45-27.23-34.62-.92-3.23-1.37-7.53,1.74-9.76,3.44-2.63,7.68-3.93,11.72-5.33,12.82-3.6,26.58-3.67,39.46-.3,11.08,3.24,21.46,8.99,29.87,16.94,2.75,2.82,5.02,6.07,7.88,8.8-3.51-13.46-12.3-25.03-22.77-33.94-1.59-1.31-2.78-3.01-3.72-4.82,1.63-2.59,3.49-5.1,6.14-6.72ZM208.42,54.88c15.19,13.49,24.29,32.51,28.62,52.11,1.09,5.38,2.68,10.63,3.8,16,.53,1.7.57,4.06,2.54,4.8,2.76-.28,2.74-3.63,3.22-5.69,2.48-19.54-.33-40.16-10.26-57.39-3.88-6.55-8.34-13.2-14.85-17.38-4.92,1.29-9.23,4.3-13.07,7.55ZM289.05,76.01c-11.75,6.27-20.49,17.06-26.05,29-2.77,6.23-6,12.34-7.62,19,.79.03,2.38.08,3.18.1,6.52.68,13.12,1.07,19.64.14,15.51-.91,30.81-7.17,41.94-18.12,9.15-9.18,15.91-21.15,17.91-34.02-15.86-6.09-34.16-4.02-49,3.9ZM145.99,77.03c-1.98.88-5.73,2.01-4.34,4.87,4.66,11.74,12.97,21.92,23.33,29.12,16.42,11.8,37.53,16.75,57.52,14.14,3.48-.9,8.25.28,10.83-2.53l-.72-.08c-3.38-7.66-7.01-15.29-12.04-22.02-9.93-14.01-25.51-24.05-42.57-26.55-10.69-2.24-21.79-.39-32.01,3.05ZM309.37,123.55c-17.43,9.53-38.15,10.05-57.47,8.07-3.39,2.48-7.79,3.32-11.88,2.4-2.36-.72-4.28-3.26-6.93-2.28-9.59,1.76-19.4,2-29.11,1.46-11.86-.71-23.34-4.46-33.87-9.85-14.51,5.75-28.39,13.29-40.39,23.33-13.5,10.27-24.16,23.77-32.81,38.26-16.81,28.42-23.5,62.2-21,94.97,1.61,25.51,9.1,50.8,22.64,72.56,15.8,25.85,40.08,46.11,67.73,58.28,32.75,14.47,69.34,18.59,104.81,15.77,12.11-1.3,24.25-2.89,35.97-6.31,35.44-8.91,67.85-30.24,89.12-60.07,11.08-16.05,19.66-34.03,23.81-53.15,5.09-20.57,5.52-42.07,3.14-63.06-2.04-14.28-5.62-28.41-11.58-41.58-11.2-25.77-30.06-48.08-53.59-63.44-12.23-8.45-26.07-14.2-40.22-18.53-3.28-1.18-5.64,1.98-8.37,3.17Z"/>
    <path class="st1" d="M183.44,152.54c4.98-.96,10.56-.73,14.97,2.02,2.25,1.65,1.68,4.87-.4,6.39-2.29,2.27-5.43.06-8.07-.15-5.68-.67-11.54,1.63-15.67,5.52-1.58,1.36-3.19,2.84-5.27,3.35-3.17-.01-4.87-4.14-2.76-6.44,4.13-5.51,10.43-9.4,17.2-10.69Z"/>
    <path class="st1" d="M306.4,152.53c10.39-2.24,21.76,2.74,27.5,11.57,1.95,2.58-1.23,6.59-4.13,5.26-3.33-1.52-5.45-4.82-8.8-6.36-4.56-2.5-10.06-2.94-14.96-1.2-2.71,1.42-6.18-.76-6.13-3.76-.22-3.48,3.79-4.82,6.52-5.51Z"/>
    <path class="st1" d="M181.54,183.32c8.13-1.11,16.74.92,23.38,5.81,9.74,6.67,15.12,18.57,14.78,30.25-2.28-17.2-19.14-31.96-36.79-29.52-16.53,2.45-28.69,18.81-28.59,35.13-.39,10.57,4.26,21.18,12.24,28.1-7.95-3.69-13.52-11.2-16.48-19.27-3.14-10.04-2-21.43,3.34-30.52,5.73-10.39,16.22-18.4,28.12-19.98Z"/>
    <path class="st1" d="M287.17,197.04c6.49-9.55,18.3-15.15,29.82-13.85,18.86,2.04,34.44,19.88,34.12,38.84.44,11.95-5.87,24.4-16.52,30.1,8.04-7.65,11.88-19.24,10.61-30.21-1.48-12.35-8.75-24.57-20.4-29.73-4.99-2.33-10.6-2.16-15.96-1.71-7.14-.14-13.53,4.12-18.4,8.99-5.04,5.12-8.54,11.8-9.61,18.92-.43-7.53,2.24-15.11,6.34-21.35Z"/>
    <path class="st1" d="M191.39,203.51c6.89-2.62,14.94-.06,19.85,5.23,9,9.34,9.81,24.8,3.47,35.82-2.56,3.8-6.43,6.63-10.67,8.31-7.35,2.51-15.83-.39-20.68-6.31-11.03-12.59-8.24-36.24,8.03-43.05ZM203.05,212.97c-.7.65-1.36,1.32-2,2.02-2.59,2.46-.26,7.32,2.99,7.79,2.88.64,5.35-2.09,5.8-4.72.11-2.4-2.15-3.77-3.76-5.12-.76.01-2.27.02-3.03.03Z"/>
    <path class="st1" d="M293.21,205.2c6.5-4.58,16-3.67,21.68,1.83,9.22,8.75,10.62,23.82,4.95,34.9-3.47,6.94-10.8,12.55-18.85,11.96-5.83-.19-10.69-4.15-14.3-8.4-1.62-2.44-2.69-5.2-3.69-7.94-3.25-11.37-.2-25.66,10.21-32.35ZM303.71,218.04c.22,2.93,3.21,5.51,6.2,4.72,2.28-.8,4.09-3.25,3.55-5.73-.34-1.9-2.11-2.89-3.41-4.09-.77.01-2.3.02-3.07.03-1.39,1.45-3.48,2.77-3.27,5.07Z"/>
    <path class="st1" d="M230.43,239.45c1.44-.39,2.81.51,4.14.94,9.92,4.54,21.78,4.43,31.69-.08,2.14-1.14,5.15-1.5,6.66.83,2.44,3.87,1.61,8.76.52,12.93-1.98,7.84-6.5,15.68-14.04,19.28-5.96,3.2-13.59,3.03-19.41-.43-6.73-3.7-11.28-10.71-12.81-18.15-.88-4.1-1.67-8.57.05-12.57.49-1.41,1.78-2.39,3.2-2.75ZM245.52,259.62c-2.49.48-4.88,1.5-6.85,3.1-.91.55-1.75,1.71-1.13,2.78,3.13,3.62,7.37,6.92,12.47,6.34,5.15.6,9.61-2.55,13.01-6.06,1.54-1.16-.3-2.78-1.28-3.51-4.63-3.41-10.77-3.37-16.22-2.65Z"/>
  </g>
  <g>
    <path class="st4" d="M208.42,54.88c3.84-3.25,8.15-6.26,13.07-7.55,6.51,4.18,10.97,10.83,14.85,17.38,9.93,17.23,12.74,37.85,10.26,57.39-.48,2.06-.46,5.41-3.22,5.69-1.97-.74-2.01-3.1-2.54-4.8-1.12-5.37-2.71-10.62-3.8-16-4.33-19.6-13.43-38.62-28.62-52.11Z"/>
    <path class="st4" d="M289.05,76.01c14.84-7.92,33.14-9.99,49-3.9-2,12.87-8.76,24.84-17.91,34.02-11.13,10.95-26.43,17.21-41.94,18.12-3.82.14-7.63.02-11.44-.15,9.66-9.44,20.47-17.73,29.25-28.05,2.96-3.4,6.11-6.62,8.94-10.13-18.11,9.04-32.73,23.54-46.39,38.19-.8-.02-2.39-.07-3.18-.1,1.62-6.66,4.85-12.77,7.62-19,5.56-11.94,14.3-22.73,26.05-29Z"/>
    <path class="st4" d="M145.99,77.03c10.22-3.44,21.32-5.29,32.01-3.05,17.06,2.5,32.64,12.54,42.57,26.55,5.03,6.73,8.66,14.36,12.04,22.02-.35-.04-1.04-.12-1.39-.17-6.93-5.22-13.13-11.37-20.26-16.34-10.14-7.05-21.1-13.47-33.34-15.95,5.67,3.82,11.95,6.66,17.28,10.99,10.15,6.86,19.4,14.97,27.6,24.08-19.99,2.61-41.1-2.34-57.52-14.14-10.36-7.2-18.67-17.38-23.33-29.12-1.39-2.86,2.36-3.99,4.34-4.87Z"/>
  </g>
  <g>
    <path class="st2" d="M258.56,124.11c13.66-14.65,28.28-29.15,46.39-38.19-2.83,3.51-5.98,6.73-8.94,10.13-8.78,10.32-19.59,18.61-29.25,28.05,3.81.17,7.62.29,11.44.15-6.52.93-13.12.54-19.64-.14Z"/>
    <path class="st2" d="M177.62,90.09c12.24,2.48,23.2,8.9,33.34,15.95,7.13,4.97,13.33,11.12,20.26,16.34.35.05,1.04.13,1.39.17l.72.08c-2.58,2.81-7.35,1.63-10.83,2.53-8.2-9.11-17.45-17.22-27.6-24.08-5.33-4.33-11.61-7.17-17.28-10.99Z"/>
  </g>
  <g>
    <path class="st0" d="M309.37,123.55c2.73-1.19,5.09-4.35,8.37-3.17,14.15,4.33,27.99,10.08,40.22,18.53,23.53,15.36,42.39,37.67,53.59,63.44,5.96,13.17,9.54,27.3,11.58,41.58,2.38,20.99,1.95,42.49-3.14,63.06-4.15,19.12-12.73,37.1-23.81,53.15-21.27,29.83-53.68,51.16-89.12,60.07-11.72,3.42-23.86,5.01-35.97,6.31-35.47,2.82-72.06-1.3-104.81-15.77-27.65-12.17-51.93-32.43-67.73-58.28-13.54-21.76-21.03-47.05-22.64-72.56-2.5-32.77,4.19-66.55,21-94.97,8.65-14.49,19.31-27.99,32.81-38.26,12-10.04,25.88-17.58,40.39-23.33,10.53,5.39,22.01,9.14,33.87,9.85,9.71.54,19.52.3,29.11-1.46,2.65-.98,4.57,1.56,6.93,2.28,4.09.92,8.49.08,11.88-2.4,19.32,1.98,40.04,1.46,57.47-8.07ZM183.44,152.54c-6.77,1.29-13.07,5.18-17.2,10.69-2.11,2.3-.41,6.43,2.76,6.44,2.08-.51,3.69-1.99,5.27-3.35,4.13-3.89,9.99-6.19,15.67-5.52,2.64.21,5.78,2.42,8.07.15,2.08-1.52,2.65-4.74.4-6.39-4.41-2.75-9.99-2.98-14.97-2.02ZM306.4,152.53c-2.73.69-6.74,2.03-6.52,5.51-.05,3,3.42,5.18,6.13,3.76,4.9-1.74,10.4-1.3,14.96,1.2,3.35,1.54,5.47,4.84,8.8,6.36,2.9,1.33,6.08-2.68,4.13-5.26-5.74-8.83-17.11-13.81-27.5-11.57ZM181.54,183.32c-11.9,1.58-22.39,9.59-28.12,19.98-5.34,9.09-6.48,20.48-3.34,30.52,2.96,8.07,8.53,15.58,16.48,19.27,8.36,6.6,19.75,8.58,30.02,6.16,8.23-2.04,15-8.15,19.02-15.46,4.28-7.34,4.79-16.14,4.1-24.41.34-11.68-5.04-23.58-14.78-30.25-6.64-4.89-15.25-6.92-23.38-5.81ZM287.17,197.04c-4.1,6.24-6.77,13.82-6.34,21.35-.42,6.39-.74,13.27,2.17,19.16,1,2.74,2.07,5.5,3.69,7.94,4.44,8.99,14.35,14.88,24.36,14.7,8.51.33,17.02-2.58,23.54-8.06,10.65-5.7,16.96-18.15,16.52-30.1.32-18.96-15.26-36.8-34.12-38.84-11.52-1.3-23.33,4.3-29.82,13.85ZM230.43,239.45c-1.42.36-2.71,1.34-3.2,2.75-1.72,4-.93,8.47-.05,12.57,1.53,7.44,6.08,14.45,12.81,18.15,5.82,3.46,13.45,3.63,19.41.43,7.54-3.6,12.06-11.44,14.04-19.28,1.09-4.17,1.92-9.06-.52-12.93-1.51-2.33-4.52-1.97-6.66-.83-9.91,4.51-21.77,4.62-31.69.08-1.33-.43-2.7-1.33-4.14-.94ZM173.2,290.26c-6.54,1.17-13.09,3.46-18.3,7.71-8.46,6.61-13.78,17.24-13.43,28.03.29,8.65-1.14,17.82,2.68,25.92,5.47,13.89,20.05,23.12,34.85,23.08,46.66.11,93.31,0,139.96.06,9.8.08,19.84-3.13,27.11-9.84,8.04-6.95,12.7-17.63,12.36-28.24-.2-7.57.98-15.46-1.86-22.7-5.02-15.59-21.55-25.57-37.64-24.39-28.33.04-56.66-.01-84.99.11-20.25.01-40.51-.27-60.74.26Z"/>
    <path class="st0" d="M245.52,259.62c5.45-.72,11.59-.76,16.22,2.65.98.73,2.82,2.35,1.28,3.51-3.4,3.51-7.86,6.66-13.01,6.06-5.1.58-9.34-2.72-12.47-6.34-.62-1.07.22-2.23,1.13-2.78,1.97-1.6,4.36-2.62,6.85-3.1Z"/>
    <path class="st0" d="M160.54,318.11c2.16-7.88,10.29-13.59,18.43-13.14,6.41-.09,13.07,3.49,15.52,9.59,3.31,7.42.4,16.27-4.9,21.99-4.34,4.61-9.01,8.89-13.3,13.55,5.58.23,11.18-.3,16.74.26,4.38,1.58,3.54,8.52-1.04,9.17-7.64.38-15.33-.05-22.99.17-2.86-.08-6.67.56-8.34-2.43-1.81-2.56.4-5.57,2.08-7.54,4.21-4.45,8.6-8.74,12.93-13.07,4.34-4.12,9.38-9.09,8.49-15.66.2-4.95-5.75-8.05-9.9-5.74-3.7,1.49-3.18,6.62-6.48,8.52-3.41,1.88-8.27-1.88-7.24-5.67Z"/>
    <path class="st0" d="M317.46,305.65c4.64-1.16,9.8-.6,13.96,1.8,5.63,3.85,8,10.74,9.24,17.15,1.46,9.74,1.17,20.37-3.98,29.07-3.92,6.43-12.69,8.75-19.59,6.33-4.29-1.18-7.45-4.67-9.75-8.31-4.58-8.42-4.35-18.45-3.19-27.69,1.1-7.68,5.18-16.25,13.31-18.35ZM320.27,315.34c-2.88,1.38-4.55,4.52-5.01,7.58-.99,5.95-1.02,12.06-.42,18.05.44,3.25,1.09,7.25,4.39,8.83,2.81,1.51,7.22,1.34,8.83-1.81,2.82-5.51,2.83-11.95,2.7-17.99-.41-4.31-.26-9.1-2.96-12.73-1.67-2.4-4.94-2.59-7.53-1.93Z"/>
    <path class="st0" d="M205.55,311.03c.17-2.76,2.56-5.14,5.4-4.85,6.62.03,13.25-.22,19.85.12,4.48,1.24,3.81,8.54-.77,9.04-5.13.34-10.28.02-15.42.12-.6,3.18-1.24,6.35-1.93,9.52,5.84-2.61,13.43-2.44,18.18,2.25,8.3,7.57,7.13,22.26-1.34,29.25-4.42,3.98-10.87,4.42-16.5,3.59-5.23-.66-10.38-4.05-12.2-9.12-1.25-2.73,1.22-6.08,4.22-5.55,2.07-.12,3.23,1.78,4.63,2.96,2.92,3.04,7.96,4.36,11.72,2.12,6-3.45,6.94-13.06,1.46-17.42-4.08-2.59-9.72-1.59-13.13,1.69-2.23,2.45-7.28,1.99-7.79-1.73.35-7.43,2.6-14.63,3.62-21.99Z"/>
    <path class="st0" d="M272.35,306.42c6.21-1.78,14-1.54,18.55,3.67,5.04,5.66,7.16,13.41,7.25,20.88.08,7.9-.39,16.4-5,23.13-5.6,7.88-17.96,8.88-25.3,2.98-7.77-7.76-7.51-19.69-7.08-29.87.54-8.01,3.12-17.86,11.58-20.79ZM277.46,315.55c-3.72,1.3-5.27,5.44-5.66,9.04-.82,6.99-1.25,14.26.7,21.1,1.25,5.29,9.48,6.75,12.31,2.07,2.59-4.42,2.65-9.77,2.81-14.74-.29-5.15-.3-10.79-3.33-15.2-1.46-2.26-4.37-2.81-6.83-2.27Z"/>
    <path class="st0" d="M246.18,316.04c3.63-1.48,8.31.81,8.62,4.89,1.14,5.31-6.28,9.14-10.08,5.4-3.66-2.63-2.6-8.66,1.46-10.29Z"/>
    <path class="st0" d="M246.37,341.44c3.38-1.2,7.99.53,8.42,4.43,1.53,5.52-6.4,9.89-10.2,5.57-3.58-2.61-2.26-8.65,1.78-10Z"/>
  </g>
  <g>
    <path class="st3" d="M154.32,224.99c-.1-16.32,12.06-32.68,28.59-35.13,17.65-2.44,34.51,12.32,36.79,29.52.69,8.27.18,17.07-4.1,24.41-4.02,7.31-10.79,13.42-19.02,15.46-10.27,2.42-21.66.44-30.02-6.16-7.98-6.92-12.63-17.53-12.24-28.1ZM191.39,203.51c-16.27,6.81-19.06,30.46-8.03,43.05,4.85,5.92,13.33,8.82,20.68,6.31,4.24-1.68,8.11-4.51,10.67-8.31,6.34-11.02,5.53-26.48-3.47-35.82-4.91-5.29-12.96-7.85-19.85-5.23Z"/>
    <path class="st3" d="M290.44,199.47c4.87-4.87,11.26-9.13,18.4-8.99,5.36-.45,10.97-.62,15.96,1.71,11.65,5.16,18.92,17.38,20.4,29.73,1.27,10.97-2.57,22.56-10.61,30.21-6.52,5.48-15.03,8.39-23.54,8.06-10.01.18-19.92-5.71-24.36-14.7,3.61,4.25,8.47,8.21,14.3,8.4,8.05.59,15.38-5.02,18.85-11.96,5.67-11.08,4.27-26.15-4.95-34.9-5.68-5.5-15.18-6.41-21.68-1.83-10.41,6.69-13.46,20.98-10.21,32.35-2.91-5.89-2.59-12.77-2.17-19.16,1.07-7.12,4.57-13.8,9.61-18.92Z"/>
    <path class="st3" d="M203.05,212.97c.76-.01,2.27-.02,3.03-.03,1.61,1.35,3.87,2.72,3.76,5.12-.45,2.63-2.92,5.36-5.8,4.72-3.25-.47-5.58-5.33-2.99-7.79.64-.7,1.3-1.37,2-2.02Z"/>
    <path class="st3" d="M303.71,218.04c-.21-2.3,1.88-3.62,3.27-5.07.77-.01,2.3-.02,3.07-.03,1.3,1.2,3.07,2.19,3.41,4.09.54,2.48-1.27,4.93-3.55,5.73-2.99.79-5.98-1.79-6.2-4.72Z"/>
    <path class="st3" d="M173.2,290.26c20.23-.53,40.49-.25,60.74-.26,28.33-.12,56.66-.07,84.99-.11,16.09-1.18,32.62,8.8,37.64,24.39,2.84,7.24,1.66,15.13,1.86,22.7.34,10.61-4.32,21.29-12.36,28.24-7.27,6.71-17.31,9.92-27.11,9.84-46.65-.06-93.3.05-139.96-.06-14.8.04-29.38-9.19-34.85-23.08-3.82-8.1-2.39-17.27-2.68-25.92-.35-10.79,4.97-21.42,13.43-28.03,5.21-4.25,11.76-6.54,18.3-7.71ZM160.54,318.11c-1.03,3.79,3.83,7.55,7.24,5.67,3.3-1.9,2.78-7.03,6.48-8.52,4.15-2.31,10.1.79,9.9,5.74.89,6.57-4.15,11.54-8.49,15.66-4.33,4.33-8.72,8.62-12.93,13.07-1.68,1.97-3.89,4.98-2.08,7.54,1.67,2.99,5.48,2.35,8.34,2.43,7.66-.22,15.35.21,22.99-.17,4.58-.65,5.42-7.59,1.04-9.17-5.56-.56-11.16-.03-16.74-.26,4.29-4.66,8.96-8.94,13.3-13.55,5.3-5.72,8.21-14.57,4.9-21.99-2.45-6.1-9.11-9.68-15.52-9.59-8.14-.45-16.27,5.26-18.43,13.14ZM317.46,305.65c-8.13,2.1-12.21,10.67-13.31,18.35-1.16,9.24-1.39,19.27,3.19,27.69,2.3,3.64,5.46,7.13,9.75,8.31,6.9,2.42,15.67.1,19.59-6.33,5.15-8.7,5.44-19.33,3.98-29.07-1.24-6.41-3.61-13.3-9.24-17.15-4.16-2.4-9.32-2.96-13.96-1.8ZM205.55,311.03c-1.02,7.36-3.27,14.56-3.62,21.99.51,3.72,5.56,4.18,7.79,1.73,3.41-3.28,9.05-4.28,13.13-1.69,5.48,4.36,4.54,13.97-1.46,17.42-3.76,2.24-8.8.92-11.72-2.12-1.4-1.18-2.56-3.08-4.63-2.96-3-.53-5.47,2.82-4.22,5.55,1.82,5.07,6.97,8.46,12.2,9.12,5.63.83,12.08.39,16.5-3.59,8.47-6.99,9.64-21.68,1.34-29.25-4.75-4.69-12.34-4.86-18.18-2.25.69-3.17,1.33-6.34,1.93-9.52,5.14-.1,10.29.22,15.42-.12,4.58-.5,5.25-7.8.77-9.04-6.6-.34-13.23-.09-19.85-.12-2.84-.29-5.23,2.09-5.4,4.85ZM272.35,306.42c-8.46,2.93-11.04,12.78-11.58,20.79-.43,10.18-.69,22.11,7.08,29.87,7.34,5.9,19.7,4.9,25.3-2.98,4.61-6.73,5.08-15.23,5-23.13-.09-7.47-2.21-15.22-7.25-20.88-4.55-5.21-12.34-5.45-18.55-3.67ZM246.18,316.04c-4.06,1.63-5.12,7.66-1.46,10.29,3.8,3.74,11.22-.09,10.08-5.4-.31-4.08-4.99-6.37-8.62-4.89ZM246.37,341.44c-4.04,1.35-5.36,7.39-1.78,10,3.8,4.32,11.73-.05,10.2-5.57-.43-3.9-5.04-5.63-8.42-4.43Z"/>
    <path class="st3" d="M277.46,315.55c2.46-.54,5.37.01,6.83,2.27,3.03,4.41,3.04,10.05,3.33,15.2-.16,4.97-.22,10.32-2.81,14.74-2.83,4.68-11.06,3.22-12.31-2.07-1.95-6.84-1.52-14.11-.7-21.1.39-3.6,1.94-7.74,5.66-9.04Z"/>
    <path class="st3" d="M320.27,315.34c2.59-.66,5.86-.47,7.53,1.93,2.7,3.63,2.55,8.42,2.96,12.73.13,6.04.12,12.48-2.7,17.99-1.61,3.15-6.02,3.32-8.83,1.81-3.3-1.58-3.95-5.58-4.39-8.83-.6-5.99-.57-12.1.42-18.05.46-3.06,2.13-6.2,5.01-7.58Z"/>
  </g>
</svg>